<svg width="39" height="39" viewBox="0 0 39 39" fill="none" xmlns="http://www.w3.org/2000/svg">
<path d="M16.5611 3.37132C18.3135 2.0981 20.6865 2.0981 22.4389 3.37132L33.9311 11.7209C35.6835 12.9941 36.4168 15.2509 35.7475 17.311L31.3578 30.8209C30.6885 32.881 28.7687 34.2758 26.6026 34.2758H12.3974C10.2313 34.2758 8.31153 32.881 7.64216 30.8209L3.25254 17.311C2.58317 15.2509 3.31646 12.9941 5.06889 11.7209L16.5611 3.37132Z" stroke="white" stroke-width="2"/>
<path d="M16.5611 13.3713C18.3135 12.0981 20.6865 12.0981 22.4389 13.3713L24.4205 14.811C26.173 16.0843 26.9063 18.3411 26.2369 20.4012L25.48 22.7307C24.8106 24.7909 22.8908 26.1857 20.7247 26.1857H18.2753C16.1092 26.1857 14.1894 24.7909 13.52 22.7307L12.7631 20.4012C12.0937 18.3411 12.827 16.0843 14.5795 14.8111L16.5611 13.3713Z" stroke="white" stroke-width="2"/>
</svg>
